<svg width="98" height="85" viewBox="0 0 98 85" fill="none" xmlns="http://www.w3.org/2000/svg">
<g id="Group 129">
<path id="Ellipse 3" d="M65.3809 15.6379C73.9768 15.6379 82.4285 18.7514 88.5068 25.2878C94.5851 31.8242 97.9998 40.6894 97.9998 49.9333C97.9998 59.1771 94.5851 68.0424 88.5068 74.5788C82.4285 81.1152 73.9768 84.3404 65.3809 84.3404V76.5206C71.817 76.5206 78.1973 73.2804 82.7483 68.3863C87.2994 63.4923 89.8561 56.8545 89.8561 49.9333C89.8561 43.0121 87.2994 36.3743 82.7483 31.4803C78.1973 26.5862 71.817 23.4577 65.3809 23.4577V15.6379Z" fill="url(#paint0_linear_38_13)"/>
<g id="Vector 1">
<path d="M32.204 60.3225H77.5274L65.6002 68.7008H23.855V15.6379H65.6002V23.4577H32.204V60.3225Z" fill="url(#paint1_linear_38_13)"/>
<path d="M15.5059 76.5206H65.6002V84.3404H8.34961V30.7189H15.5059V76.5206Z" fill="url(#paint2_linear_38_13)"/>
<path d="M8.34961 21.782V15.6379H15.5059V21.782H8.34961Z" fill="url(#paint3_linear_38_13)"/>
</g>
<path id="Vector" d="M4.95139 17.2438C5.48495 11.6481 9.90688 7.84385 13.5163 5.68028C17.7646 3.05308 22.1483 1.91598 24.4416 1.58324C20.9294 6.14048 20.946 9.85383 20.9796 13.7534C21.0133 15.8895 21.0469 18.0256 20.4713 20.5103C20.0438 22.4205 18.8335 24.0928 17.0056 25.1389C15.2241 26.2564 13.1297 26.5733 11.0902 26.1729C6.3217 25.2769 4.59992 20.8739 4.95139 17.2438Z" fill="url(#paint4_linear_38_13)"/>
</g>
<defs>
<linearGradient id="paint0_linear_38_13" x1="8.13032" y1="15.0793" x2="88.578" y2="89.5593" gradientUnits="userSpaceOnUse">
<stop offset="0.38943" stop-color="#AA8453"/>
<stop offset="0.790519" stop-color="#B68F5B"/>
<stop offset="1" stop-color="#EAC381"/>
</linearGradient>
<linearGradient id="paint1_linear_38_13" x1="8.34961" y1="15.0793" x2="92.995" y2="89.7885" gradientUnits="userSpaceOnUse">
<stop stop-color="#9D7749"/>
<stop offset="1" stop-color="#BF9862"/>
</linearGradient>
<linearGradient id="paint2_linear_38_13" x1="8.34961" y1="15.0793" x2="92.995" y2="89.7885" gradientUnits="userSpaceOnUse">
<stop stop-color="#9D7749"/>
<stop offset="1" stop-color="#BF9862"/>
</linearGradient>
<linearGradient id="paint3_linear_38_13" x1="8.34961" y1="15.0793" x2="92.995" y2="89.7885" gradientUnits="userSpaceOnUse">
<stop stop-color="#9D7749"/>
<stop offset="1" stop-color="#BF9862"/>
</linearGradient>
<linearGradient id="paint4_linear_38_13" x1="24.2053" y1="1.51145" x2="11.8387" y2="26.3652" gradientUnits="userSpaceOnUse">
<stop stop-color="#EBC482"/>
<stop offset="1" stop-color="#9D7749"/>
</linearGradient>
</defs>
</svg>
